<?xml version="1.0" standalone="no"?>
<!DOCTYPE svg PUBLIC "-//W3C//DTD SVG 20010904//EN"
 "http://www.w3.org/TR/2001/REC-SVG-20010904/DTD/svg10.dtd">
<svg version="1.0" xmlns="http://www.w3.org/2000/svg"
 width="275.000000pt" height="183.000000pt" viewBox="0 0 275.000000 183.000000"
 preserveAspectRatio="xMidYMid meet">

<g transform="translate(0.000000,183.000000) scale(0.100000,-0.100000)"
fill="#000000" stroke="none">
<path d="M0 1720 l0 -110 68 0 c38 0 111 -2 163 -5 89 -5 93 -4 64 10 -28 15
-22 15 100 11 72 -3 186 -10 255 -15 68 -6 230 -15 360 -21 242 -10 463 -30
630 -55 53 -8 115 -15 138 -15 23 0 42 -4 42 -9 0 -4 33 -7 73 -6 39 2 63 1
52 -2 -11 -2 -42 -13 -70 -25 -152 -63 -151 -63 -272 -50 -143 16 -346 17
-408 2 -27 -6 -68 -11 -90 -12 -22 0 -46 -5 -53 -10 -14 -12 -59 -9 -377 21
-115 11 -248 28 -295 36 -47 9 -151 19 -232 22 l-148 6 0 -69 0 -69 552 3
c337 2 554 8 556 13 2 6 10 5 19 -2 10 -9 17 -9 21 -2 8 11 64 24 57 13 -3 -4
48 -13 113 -20 214 -21 375 -40 379 -44 2 -2 -47 -6 -109 -10 -98 -5 -286 -12
-1148 -41 -85 -2 -219 -5 -297 -5 l-143 0 0 -149 0 -149 43 5 c23 3 58 9 77
14 55 14 60 12 60 -26 l0 -35 -44 6 c-25 4 -65 3 -90 0 -44 -7 -46 -9 -46 -39
0 -30 6 -36 65 -67 35 -19 62 -36 60 -38 -2 -2 -30 10 -61 27 -72 39 -83 34
-14 -6 38 -22 48 -32 36 -36 -9 -4 -32 3 -51 14 -20 12 -35 16 -35 10 0 -6 11
-16 24 -21 14 -5 41 -25 61 -45 20 -19 41 -33 45 -30 7 5 145 -63 175 -85 6
-4 27 -17 48 -29 20 -12 53 -30 72 -41 20 -11 46 -20 58 -19 14 0 17 2 7 6 -8
3 -84 44 -169 92 -126 71 -149 87 -127 89 19 2 91 -29 236 -102 115 -58 215
-104 222 -101 192 64 351 92 368 64 8 -13 101 -51 175 -72 22 -7 43 -16 46
-21 4 -5 11 -6 17 -2 14 9 43 -4 36 -16 -4 -6 1 -8 13 -4 13 4 20 2 20 -8 0
-8 -40 -31 -92 -55 -51 -22 -126 -56 -167 -76 -83 -39 -101 -41 -138 -20 -14
8 -32 14 -40 14 -9 0 -6 -5 7 -11 22 -11 22 -11 4 -27 -17 -15 -16 -17 20 -46
21 -16 40 -36 43 -42 13 -31 -19 -54 -84 -59 -14 -1 -43 -5 -65 -9 -22 -3 -70
-11 -106 -16 l-65 -10 -17 -45 -16 -44 1069 0 1070 0 0 915 0 915 -1375 0
-1375 0 0 -110z m2005 -220 c-3 -5 -12 -10 -18 -10 -7 0 -6 4 3 10 19 12 23
12 15 0z m-267 -97 c-15 -2 -42 -2 -60 0 -18 2 -6 4 27 4 33 0 48 -2 33 -4z
m82 -133 c0 -5 -24 -9 -55 -8 -30 1 -55 6 -55 10 0 4 25 8 55 8 30 0 55 -4 55
-10z m109 -6 c17 -4 31 -11 31 -16 0 -5 -5 -6 -11 -2 -6 3 -34 10 -63 14 -35
5 -41 8 -20 9 17 0 46 -2 63 -5z m96 -22 c-3 -3 -11 0 -18 7 -9 10 -8 11 6 5
10 -3 15 -9 12 -12z m411 -38 c50 -8 104 -19 120 -23 27 -8 26 -9 -21 -15 -27
-4 -122 -19 -210 -33 -88 -14 -187 -26 -220 -28 -51 -3 -285 -44 -901 -159
l-131 -24 -69 19 c-311 88 -610 148 -746 150 -90 1 -67 6 142 29 172 19 238
25 555 51 66 6 153 13 193 17 41 4 76 4 78 0 3 -5 17 -7 32 -7 27 1 27 1 -3 8
-22 6 -4 10 69 16 107 8 256 1 338 -16 39 -9 84 -7 202 6 337 37 395 37 572 9z
m-2289 -51 c-3 -10 -5 -2 -5 17 0 19 2 27 5 18 2 -10 2 -26 0 -35z m153 37 c0
-5 -4 -10 -10 -10 -5 0 -10 5 -10 10 0 6 5 10 10 10 6 0 10 -4 10 -10z m0 -30
c0 -5 -4 -10 -10 -10 -5 0 -10 5 -10 10 0 6 5 10 10 10 6 0 10 -4 10 -10z
m1819 -74 c9 -11 6 -12 -14 -8 -14 2 -25 8 -25 13 0 14 26 11 39 -5z m28 -103
c-2 -21 -4 -4 -4 37 0 41 2 58 4 38 2 -21 2 -55 0 -75z m-190 61 c-3 -3 -12
-4 -19 -1 -8 3 -5 6 6 6 11 1 17 -2 13 -5z m-1336 -25 c4 -6 12 -9 18 -5 14 9
92 -14 85 -25 -3 -5 2 -6 10 -3 13 5 217 -40 240 -54 4 -2 2 -9 -5 -14 -9 -6
-1 -7 24 -3 27 4 46 2 63 -10 23 -15 24 -19 23 -143 -1 -107 -3 -122 -12 -92
-6 19 -16 38 -21 42 -12 8 -13 14 -15 73 -1 37 -4 41 -36 51 l-35 11 0 -53 c0
-30 -4 -54 -10 -54 -5 0 -10 5 -10 11 0 5 -4 7 -10 4 -5 -3 -45 4 -88 16 l-79
23 -2 50 c-1 27 -3 51 -4 52 -1 2 -16 6 -32 10 -40 9 -123 15 -107 8 6 -3 12
-21 12 -40 0 -20 5 -34 13 -35 9 0 9 -2 0 -5 -7 -3 -21 -1 -32 5 -16 9 -19 20
-17 60 1 38 -1 47 -12 43 -11 -4 -13 2 -8 26 4 17 3 33 -3 36 -11 7 -25 -29
-16 -44 3 -5 1 -10 -4 -10 -6 0 -12 19 -12 43 l-2 42 -7 -35 -7 -35 -2 35 c-1
19 -5 31 -9 25 -4 -5 -20 -11 -37 -12 -16 0 -24 1 -16 4 11 4 11 7 0 13 -7 5
25 6 71 4 47 -2 87 -9 91 -15z m1272 14 c-7 -2 -19 -2 -25 0 -7 3 -2 5 12 5
14 0 19 -2 13 -5z m94 -45 c-2 -13 -4 -5 -4 17 -1 22 1 32 4 23 2 -10 2 -28 0
-40z m-1672 32 c-3 -5 -12 -10 -18 -10 -7 0 -6 4 3 10 19 12 23 12 15 0z m122
-12 c-3 -8 -6 -5 -6 6 -1 11 2 17 5 13 3 -3 4 -12 1 -19z m1360 -125 c-2 -27
-3 -5 -3 47 0 52 1 74 3 48 2 -27 2 -69 0 -95z m865 116 c47 -10 50 -13 29
-21 -31 -11 -91 0 -91 18 0 17 -3 17 62 3z m-2152 -11 c0 -7 -12 -14 -27 -15
l-28 -1 25 14 c31 17 30 17 30 2z m1391 -55 c-2 -81 -11 -80 -11 2 0 38 3 65
7 62 3 -4 5 -32 4 -64z m579 42 c151 -16 164 -23 94 -52 -46 -19 -64 -22 -82
-13 -13 5 -30 10 -38 10 -22 0 -114 41 -114 50 0 5 9 6 20 3 12 -3 20 0 20 7
0 9 9 10 33 5 17 -3 48 -8 67 -10z m-953 -132 c-2 -27 -3 -5 -3 47 0 52 1 74
3 48 2 -27 2 -69 0 -95z m143 -11 c-10 -14 -11 -13 -6 8 3 14 7 52 8 85 l2 60
3 -68 c2 -38 -1 -75 -7 -85z m-1191 89 c-2 -32 -6 -37 -22 -33 -18 5 -18 6 -2
15 13 7 14 11 5 17 -14 9 -6 40 10 40 6 0 10 -16 9 -39z m848 -98 c-2 -21 -4
-6 -4 32 0 39 2 55 4 38 2 -18 2 -50 0 -70z m1028 70 c50 -8 91 -16 93 -17 1
-2 -42 -19 -97 -39 l-99 -35 -67 34 c-37 18 -72 31 -78 27 -6 -3 -7 -1 -3 5 4
7 1 12 -6 13 -7 0 -3 4 10 9 12 5 22 15 22 21 0 13 80 7 225 -18z m-488 -30
c-3 -10 -5 -4 -5 12 0 17 2 24 5 18 2 -7 2 -21 0 -30z m618 27 c-3 -5 -12 -10
-18 -10 -7 0 -6 4 3 10 19 12 23 12 15 0z m-2338 -26 c-3 -3 -12 -4 -19 -1 -8
3 -5 6 6 6 11 1 17 -2 13 -5z m1625 -71 c-2 -29 -1 -34 7 -23 9 12 11 13 11 1
0 -10 8 -7 25 9 14 13 25 19 25 14 0 -5 4 -3 9 4 7 11 30 9 131 -13 112 -25
134 -26 187 -9 10 3 2 -3 -17 -13 -41 -22 -232 -103 -242 -103 -4 0 -9 26 -11
58 l-3 57 -2 -65 c-1 -36 -6 -60 -10 -54 -4 6 -38 21 -77 34 -38 12 -77 29
-86 36 -8 8 -21 14 -27 14 -13 0 -36 39 -28 48 3 3 6 1 6 -4 0 -5 20 -8 45 -6
37 3 45 8 45 24 0 15 -5 18 -21 13 -15 -5 -19 -4 -15 4 4 6 17 11 30 11 19 0
22 -4 18 -37z m843 27 c-3 -5 -16 -15 -28 -21 -19 -9 -19 -8 3 10 28 23 34 26
25 11z m-1875 -10 c13 -9 13 -10 0 -9 -8 0 -24 4 -35 9 l-20 9 20 0 c11 0 27
-4 35 -9z m-433 -16 c-3 -3 -12 -4 -19 -1 -8 3 -5 6 6 6 11 1 17 -2 13 -5z
m79 -31 c-5 -6 -66 19 -66 27 0 4 16 0 35 -8 19 -9 33 -17 31 -19z m-149 21
c-3 -3 -12 -4 -19 -1 -8 3 -5 6 6 6 11 1 17 -2 13 -5z m2313 -10 c-8 -8 -23
-20 -34 -25 -13 -7 -9 -1 9 15 34 29 43 33 25 10z m40 -34 c0 -5 -4 -10 -10
-10 -5 0 -10 5 -10 10 0 6 5 10 10 10 6 0 10 -4 10 -10z m-2243 -61 c70 -34
171 -82 223 -106 52 -24 82 -42 66 -38 -29 6 -437 202 -424 204 3 1 64 -27
135 -60z m181 31 c3 0 3 -2 0 -5 -5 -6 -78 22 -78 30 0 3 16 -2 36 -10 20 -8
39 -15 42 -15z m1954 18 c-18 -18 -15 -28 11 -38 13 -5 16 -9 6 -9 -8 -1 -24
6 -35 14 -19 15 -19 15 0 30 24 18 35 20 18 3z m-1854 -58 c3 0 3 -2 0 -5 -5
-6 -78 22 -78 30 0 3 16 -2 36 -10 20 -8 39 -15 42 -15z m2039 -16 c-3 -3 -12
-4 -19 -1 -8 3 -5 6 6 6 11 1 17 -2 13 -5z m50 -10 c-3 -3 -12 -4 -19 -1 -8 3
-5 6 6 6 11 1 17 -2 13 -5z m-827 -14 c-8 -5 -19 -10 -25 -10 -5 0 -3 5 5 10
8 5 20 10 25 10 6 0 3 -5 -5 -10z m-83 -36 c-3 -4 -84 -42 -179 -85 -141 -64
-181 -79 -218 -78 l-45 2 55 7 c50 6 104 29 335 140 40 19 64 25 52 14z m-757
-8 c0 -3 -4 -8 -10 -11 -5 -3 -10 -1 -10 4 0 6 5 11 10 11 6 0 10 -2 10 -4z
m-353 -42 c-3 -3 -12 -4 -19 -1 -8 3 -5 6 6 6 11 1 17 -2 13 -5z"/>
<path d="M1328 1193 c6 -2 18 -2 25 0 6 3 1 5 -13 5 -14 0 -19 -2 -12 -5z"/>
<path d="M1148 1173 c7 -3 16 -2 19 1 4 3 -2 6 -13 5 -11 0 -14 -3 -6 -6z"/>
<path d="M751 964 c0 -11 3 -14 6 -6 3 7 2 16 -1 19 -3 4 -6 -2 -5 -13z"/>
<path d="M891 914 c0 -11 3 -14 6 -6 3 7 2 16 -1 19 -3 4 -6 -2 -5 -13z"/>
<path d="M871 893 c-1 -27 -19 -30 -37 -5 -12 15 -13 9 -14 -41 0 -53 2 -58
26 -67 47 -18 52 -14 51 44 -1 30 -5 52 -9 50 -4 -2 -9 6 -11 18 l-4 23 -2
-22z"/>
<path d="M30 611 c-23 -6 -25 -12 -28 -77 -3 -67 -2 -71 23 -82 24 -11 74 -7
105 9 11 5 15 19 12 48 -5 52 -18 62 -67 51 -53 -12 -71 11 -19 24 28 7 32 11
23 22 -12 15 -12 15 -49 5z"/>
<path d="M520 506 c0 -3 9 -10 20 -16 11 -6 20 -8 20 -6 0 3 -9 10 -20 16 -11
6 -20 8 -20 6z"/>
<path d="M637 449 c7 -7 15 -10 18 -7 3 3 -2 9 -12 12 -14 6 -15 5 -6 -5z"/>
<path d="M0 195 l0 -195 288 1 c169 0 279 4 267 9 -11 5 -32 9 -47 9 -16 1
-41 15 -64 36 -20 19 -38 35 -40 35 -8 0 -80 56 -121 94 -55 50 -195 146 -204
140 -4 -2 -24 12 -43 31 l-36 36 0 -196z"/>
</g>
</svg>
