<svg width="15" height="13" viewBox="0 0 15 13" fill="none" xmlns="http://www.w3.org/2000/svg">
<path fill-rule="evenodd" clip-rule="evenodd" d="M7.5 13C11.6421 13 15 10.0898 15 6.5C15 2.91015 11.6421 0 7.5 0C3.35787 0 0 2.91015 0 6.5C0 10.0898 3.35787 13 7.5 13ZM4.69966 5.08481C4.46953 4.87282 4.08467 4.86265 3.84007 5.0621C3.59546 5.26156 3.58373 5.59506 3.81386 5.80706L6.72949 8.49287C7.15054 8.88076 7.84946 8.88076 8.27051 8.49287L11.1861 5.80706C11.4163 5.59506 11.4045 5.26156 11.1599 5.0621C10.9153 4.86265 10.5305 4.87282 10.3004 5.08481L7.5 7.66445L4.69966 5.08481Z" fill="#262121"/>
</svg>
